<svg xmlns="http://www.w3.org/2000/svg" xml:space="preserve" viewBox="0 0 24 24" aria-hidden="true" role="img" width="30" height="31" fill="#fff"><path d="M19.5 22H4.25C3.01 22 2 20.99 2 19.75v-10c0-.41.34-.75.75-.75s.75.34.75.75v10c0 .41.34.75.75.75H19.5c.55 0 1-.45 1-1v-8.25c0-.41-.34-.75-.75-.75h-3c-.41 0-.75-.34-.75-.75s.34-.75.75-.75h3C20.99 9 22 10.01 22 11.25v8.25a2.5 2.5 0 0 1-2.5 2.5z"></path><path d="M16.25 14.5h-8.5c-.41 0-.75.34-.75.75v6c0 .41.34.75.75.75s.75-.34.75-.75V16h2.75v5.25c0 .41.34.75.75.75s.75-.34.75-.75V16h2.75v5.25c0 .41.34.75.75.75s.75-.34.75-.75v-6c0-.41-.34-.75-.75-.75zM15.75 12.5H5.25a.75.75 0 0 1-.53-.22l-3-3a.75.75 0 0 1-.22-.53v-3.5c0-.2.08-.39.22-.53l3-3a.75.75 0 0 1 .53-.22h10.5c.96 0 1.75.79 1.75 1.75v7.5c0 .96-.79 1.75-1.75 1.75zM5.56 11h10.19c.14 0 .25-.11.25-.25v-7.5c0-.14-.11-.25-.25-.25H5.56L3 5.56v2.88L5.56 11z"></path><path d="M6 7c0 .55-.45 1-1 1s-1-.45-1-1 .45-1 1-1 1 .45 1 1z"></path></svg>